<mxfile host="app.diagrams.net" modified="2023-01-24T08:21:01.748Z" agent="5.0 (Windows NT 10.0; Win64; x64) AppleWebKit/537.36 (KHTML, like Gecko) Chrome/109.0.0.0 Safari/537.36 Edg/109.0.1518.61" version="20.6.0" etag="-jdTXfhLAAfBzhoBvsyn" type="github">
  <diagram id="Y-mtkWwKNh4w1mjbg1Gi" name="Страница 1">
    <mxGraphModel dx="1422" dy="882" grid="1" gridSize="10" guides="1" tooltips="1" connect="1" arrows="1" fold="1" page="1" pageScale="1" pageWidth="827" pageHeight="1169" math="0" shadow="0">
      <root>
        <mxCell id="0" />
        <mxCell id="1" parent="0" />
        <mxCell id="3NvF7muYeerl8GFlrplS-16" value="" style="rounded=1;whiteSpace=wrap;html=1;fillStyle=auto;glass=0;shadow=1;sketch=1;" vertex="1" parent="1">
          <mxGeometry x="190" y="350" width="160" height="490" as="geometry" />
        </mxCell>
        <mxCell id="3NvF7muYeerl8GFlrplS-3" value="" style="whiteSpace=wrap;html=1;aspect=fixed;fillStyle=hatch;" vertex="1" parent="1">
          <mxGeometry x="230" y="380" width="80" height="80" as="geometry" />
        </mxCell>
        <mxCell id="3NvF7muYeerl8GFlrplS-4" value="nav" style="swimlane;fontStyle=0;childLayout=stackLayout;horizontal=1;startSize=30;horizontalStack=0;resizeParent=1;resizeParentMax=0;resizeLast=0;collapsible=1;marginBottom=0;whiteSpace=wrap;html=1;fillStyle=hatch;" vertex="1" parent="1">
          <mxGeometry x="230" y="480" width="80" height="270" as="geometry" />
        </mxCell>
        <mxCell id="3NvF7muYeerl8GFlrplS-5" value="профиль&lt;br&gt;" style="text;strokeColor=none;fillColor=none;align=left;verticalAlign=middle;spacingLeft=4;spacingRight=4;overflow=hidden;points=[[0,0.5],[1,0.5]];portConstraint=eastwest;rotatable=0;whiteSpace=wrap;html=1;fillStyle=hatch;" vertex="1" parent="3NvF7muYeerl8GFlrplS-4">
          <mxGeometry y="30" width="80" height="30" as="geometry" />
        </mxCell>
        <mxCell id="3NvF7muYeerl8GFlrplS-6" value="график работы" style="text;strokeColor=none;fillColor=none;align=left;verticalAlign=middle;spacingLeft=4;spacingRight=4;overflow=hidden;points=[[0,0.5],[1,0.5]];portConstraint=eastwest;rotatable=0;whiteSpace=wrap;html=1;fillStyle=hatch;" vertex="1" parent="3NvF7muYeerl8GFlrplS-4">
          <mxGeometry y="60" width="80" height="30" as="geometry" />
        </mxCell>
        <mxCell id="3NvF7muYeerl8GFlrplS-8" value="услуги" style="text;strokeColor=none;fillColor=none;align=left;verticalAlign=middle;spacingLeft=4;spacingRight=4;overflow=hidden;points=[[0,0.5],[1,0.5]];portConstraint=eastwest;rotatable=0;whiteSpace=wrap;html=1;fillStyle=hatch;" vertex="1" parent="3NvF7muYeerl8GFlrplS-4">
          <mxGeometry y="90" width="80" height="30" as="geometry" />
        </mxCell>
        <mxCell id="3NvF7muYeerl8GFlrplS-7" value="зарплата" style="text;strokeColor=none;fillColor=none;align=left;verticalAlign=middle;spacingLeft=4;spacingRight=4;overflow=hidden;points=[[0,0.5],[1,0.5]];portConstraint=eastwest;rotatable=0;whiteSpace=wrap;html=1;fillStyle=hatch;" vertex="1" parent="3NvF7muYeerl8GFlrplS-4">
          <mxGeometry y="120" width="80" height="30" as="geometry" />
        </mxCell>
        <mxCell id="3NvF7muYeerl8GFlrplS-9" value="on-запись" style="text;strokeColor=none;fillColor=none;align=left;verticalAlign=middle;spacingLeft=4;spacingRight=4;overflow=hidden;points=[[0,0.5],[1,0.5]];portConstraint=eastwest;rotatable=0;whiteSpace=wrap;html=1;fillStyle=hatch;" vertex="1" parent="3NvF7muYeerl8GFlrplS-4">
          <mxGeometry y="150" width="80" height="30" as="geometry" />
        </mxCell>
        <mxCell id="3NvF7muYeerl8GFlrplS-10" value="клиенты&amp;nbsp;" style="text;strokeColor=none;fillColor=none;align=left;verticalAlign=middle;spacingLeft=4;spacingRight=4;overflow=hidden;points=[[0,0.5],[1,0.5]];portConstraint=eastwest;rotatable=0;whiteSpace=wrap;html=1;fillStyle=hatch;" vertex="1" parent="3NvF7muYeerl8GFlrplS-4">
          <mxGeometry y="180" width="80" height="30" as="geometry" />
        </mxCell>
        <mxCell id="3NvF7muYeerl8GFlrplS-11" value="визиты" style="text;strokeColor=#2D7600;fillColor=#60a917;align=left;verticalAlign=middle;spacingLeft=4;spacingRight=4;overflow=hidden;points=[[0,0.5],[1,0.5]];portConstraint=eastwest;rotatable=0;whiteSpace=wrap;html=1;fillStyle=hatch;fontColor=#ffffff;" vertex="1" parent="3NvF7muYeerl8GFlrplS-4">
          <mxGeometry y="210" width="80" height="30" as="geometry" />
        </mxCell>
        <mxCell id="3NvF7muYeerl8GFlrplS-12" value="настройки" style="text;strokeColor=none;fillColor=none;align=left;verticalAlign=middle;spacingLeft=4;spacingRight=4;overflow=hidden;points=[[0,0.5],[1,0.5]];portConstraint=eastwest;rotatable=0;whiteSpace=wrap;html=1;fillStyle=hatch;" vertex="1" parent="3NvF7muYeerl8GFlrplS-4">
          <mxGeometry y="240" width="80" height="30" as="geometry" />
        </mxCell>
        <mxCell id="3NvF7muYeerl8GFlrplS-14" value="" style="rounded=1;whiteSpace=wrap;html=1;strokeWidth=2;fillWeight=4;hachureGap=8;hachureAngle=45;fillColor=#1ba1e2;sketch=1;fillStyle=hatch;" vertex="1" parent="1">
          <mxGeometry x="230" y="760" width="80" height="40" as="geometry" />
        </mxCell>
        <mxCell id="3NvF7muYeerl8GFlrplS-18" value="" style="endArrow=classic;html=1;rounded=0;entryX=0;entryY=0.75;entryDx=0;entryDy=0;" edge="1" parent="1" source="3NvF7muYeerl8GFlrplS-11" target="3NvF7muYeerl8GFlrplS-21">
          <mxGeometry width="50" height="50" relative="1" as="geometry">
            <mxPoint x="540" y="630" as="sourcePoint" />
            <mxPoint x="590" y="580" as="targetPoint" />
          </mxGeometry>
        </mxCell>
        <mxCell id="3NvF7muYeerl8GFlrplS-21" value="" style="rounded=0;whiteSpace=wrap;html=1;shadow=1;glass=0;sketch=1;fillStyle=auto;fillColor=default;" vertex="1" parent="1">
          <mxGeometry x="380" y="350" width="470" height="490" as="geometry" />
        </mxCell>
        <mxCell id="3NvF7muYeerl8GFlrplS-22" value="10" style="rounded=1;whiteSpace=wrap;html=1;shadow=1;glass=0;sketch=1;fillStyle=auto;fillColor=default;" vertex="1" parent="1">
          <mxGeometry x="400" y="380" width="120" height="60" as="geometry" />
        </mxCell>
        <mxCell id="3NvF7muYeerl8GFlrplS-23" value="" style="rounded=1;whiteSpace=wrap;html=1;shadow=1;glass=0;sketch=1;fillStyle=auto;fillColor=default;" vertex="1" parent="1">
          <mxGeometry x="550" y="380" width="120" height="60" as="geometry" />
        </mxCell>
        <mxCell id="3NvF7muYeerl8GFlrplS-24" value="" style="rounded=1;whiteSpace=wrap;html=1;shadow=1;glass=0;sketch=1;fillStyle=auto;fillColor=default;" vertex="1" parent="1">
          <mxGeometry x="700" y="380" width="120" height="60" as="geometry" />
        </mxCell>
        <mxCell id="3NvF7muYeerl8GFlrplS-25" value="ФИЛЬТРЫ" style="rounded=0;whiteSpace=wrap;html=1;shadow=1;glass=0;sketch=1;fillStyle=auto;fillColor=default;" vertex="1" parent="1">
          <mxGeometry x="400" y="460" width="420" height="40" as="geometry" />
        </mxCell>
      </root>
    </mxGraphModel>
  </diagram>
</mxfile>
